<svg width="550" height="72" viewBox="0 0 550 72" fill="none" xmlns="http://www.w3.org/2000/svg">
<mask id="path-1-outside-1_148_546" maskUnits="userSpaceOnUse" x="0.688354" y="0.86853" width="549" height="73" fill="black">
<rect fill="white" x="0.688354" y="0.86853" width="549" height="73"/>
<path d="M23.8084 31.4765H53.3764V48.5645H23.8084V31.4765ZM25.3444 70.0685H2.68835V2.86853H57.3124V19.9565H25.3444V70.0685Z"/>
<path d="M85.2056 27.8285H115.158V44.1485H85.2056V27.8285ZM86.7416 52.9805H120.342V70.0685H64.4696V2.86853H119.094V19.9565H86.7416V52.9805Z"/>
<path d="M121.767 70.0685L151.143 2.86853H173.415L202.791 70.0685H179.367L157.671 13.6205H166.503L144.807 70.0685H121.767ZM139.239 58.3565L144.999 42.0365H175.911L181.671 58.3565H139.239Z"/>
<path d="M217.624 70.0685V20.4365H197.944V2.86853H259.96V20.4365H240.28V70.0685H217.624Z"/>
<path d="M297.067 71.6045C286.763 71.6045 278.731 68.8205 272.971 63.2525C267.211 57.6845 264.331 49.8765 264.331 39.8285V2.86853H286.987V39.1565C286.987 44.2765 287.915 47.9245 289.771 50.1005C291.627 52.2125 294.123 53.2685 297.259 53.2685C300.459 53.2685 302.955 52.2125 304.747 50.1005C306.603 47.9245 307.531 44.2765 307.531 39.1565V2.86853H329.803V39.8285C329.803 49.8765 326.923 57.6845 321.163 63.2525C315.403 68.8205 307.371 71.6045 297.067 71.6045Z"/>
<path d="M340.188 70.0685V2.86853H372.54C378.812 2.86853 384.22 3.89253 388.764 5.94053C393.372 7.98853 396.924 10.9325 399.42 14.7725C401.916 18.5485 403.164 23.0285 403.164 28.2125C403.164 33.3965 401.916 37.8765 399.42 41.6525C396.924 45.3645 393.372 48.2125 388.764 50.1965C384.22 52.1805 378.812 53.1725 372.54 53.1725H352.764L362.844 43.8605V70.0685H340.188ZM380.412 70.0685L363.9 45.5885H387.9L404.604 70.0685H380.412ZM362.844 46.3565L352.764 36.0845H371.1C374.236 36.0845 376.54 35.3805 378.012 33.9725C379.548 32.5645 380.316 30.6445 380.316 28.2125C380.316 25.7805 379.548 23.8605 378.012 22.4525C376.54 21.0445 374.236 20.3405 371.1 20.3405H352.764L362.844 10.0685V46.3565Z"/>
<path d="M432.456 27.8285H462.408V44.1485H432.456V27.8285ZM433.992 52.9805H467.592V70.0685H411.72V2.86853H466.344V19.9565H433.992V52.9805Z"/>
<path d="M476.313 70.0685V2.86853H509.433C516.921 2.86853 523.513 4.24453 529.209 6.99653C534.905 9.68453 539.353 13.5245 542.553 18.5165C545.753 23.5085 547.353 29.4605 547.353 36.3725C547.353 43.3485 545.753 49.3645 542.553 54.4205C539.353 59.4125 534.905 63.2845 529.209 66.0365C523.513 68.7245 516.921 70.0685 509.433 70.0685H476.313ZM498.969 52.4045H508.473C511.673 52.4045 514.457 51.7965 516.825 50.5805C519.257 49.3645 521.145 47.5725 522.489 45.2045C523.833 42.7725 524.505 39.8285 524.505 36.3725C524.505 32.9805 523.833 30.1005 522.489 27.7325C521.145 25.3645 519.257 23.5725 516.825 22.3565C514.457 21.1405 511.673 20.5325 508.473 20.5325H498.969V52.4045Z"/>
</mask>
<path d="M23.8084 31.4765H53.3764V48.5645H23.8084V31.4765ZM25.3444 70.0685H2.68835V2.86853H57.3124V19.9565H25.3444V70.0685Z" stroke="#808080" stroke-opacity="0.6" stroke-width="4" mask="url(#path-1-outside-1_148_546)"/>
<path d="M85.2056 27.8285H115.158V44.1485H85.2056V27.8285ZM86.7416 52.9805H120.342V70.0685H64.4696V2.86853H119.094V19.9565H86.7416V52.9805Z" stroke="#808080" stroke-opacity="0.6" stroke-width="4" mask="url(#path-1-outside-1_148_546)"/>
<path d="M121.767 70.0685L151.143 2.86853H173.415L202.791 70.0685H179.367L157.671 13.6205H166.503L144.807 70.0685H121.767ZM139.239 58.3565L144.999 42.0365H175.911L181.671 58.3565H139.239Z" stroke="#808080" stroke-opacity="0.6" stroke-width="4" mask="url(#path-1-outside-1_148_546)"/>
<path d="M217.624 70.0685V20.4365H197.944V2.86853H259.96V20.4365H240.28V70.0685H217.624Z" stroke="#808080" stroke-opacity="0.6" stroke-width="4" mask="url(#path-1-outside-1_148_546)"/>
<path d="M297.067 71.6045C286.763 71.6045 278.731 68.8205 272.971 63.2525C267.211 57.6845 264.331 49.8765 264.331 39.8285V2.86853H286.987V39.1565C286.987 44.2765 287.915 47.9245 289.771 50.1005C291.627 52.2125 294.123 53.2685 297.259 53.2685C300.459 53.2685 302.955 52.2125 304.747 50.1005C306.603 47.9245 307.531 44.2765 307.531 39.1565V2.86853H329.803V39.8285C329.803 49.8765 326.923 57.6845 321.163 63.2525C315.403 68.8205 307.371 71.6045 297.067 71.6045Z" stroke="#808080" stroke-opacity="0.6" stroke-width="4" mask="url(#path-1-outside-1_148_546)"/>
<path d="M340.188 70.0685V2.86853H372.54C378.812 2.86853 384.22 3.89253 388.764 5.94053C393.372 7.98853 396.924 10.9325 399.42 14.7725C401.916 18.5485 403.164 23.0285 403.164 28.2125C403.164 33.3965 401.916 37.8765 399.42 41.6525C396.924 45.3645 393.372 48.2125 388.764 50.1965C384.22 52.1805 378.812 53.1725 372.54 53.1725H352.764L362.844 43.8605V70.0685H340.188ZM380.412 70.0685L363.9 45.5885H387.9L404.604 70.0685H380.412ZM362.844 46.3565L352.764 36.0845H371.1C374.236 36.0845 376.54 35.3805 378.012 33.9725C379.548 32.5645 380.316 30.6445 380.316 28.2125C380.316 25.7805 379.548 23.8605 378.012 22.4525C376.54 21.0445 374.236 20.3405 371.1 20.3405H352.764L362.844 10.0685V46.3565Z" stroke="#808080" stroke-opacity="0.6" stroke-width="4" mask="url(#path-1-outside-1_148_546)"/>
<path d="M432.456 27.8285H462.408V44.1485H432.456V27.8285ZM433.992 52.9805H467.592V70.0685H411.72V2.86853H466.344V19.9565H433.992V52.9805Z" stroke="#808080" stroke-opacity="0.6" stroke-width="4" mask="url(#path-1-outside-1_148_546)"/>
<path d="M476.313 70.0685V2.86853H509.433C516.921 2.86853 523.513 4.24453 529.209 6.99653C534.905 9.68453 539.353 13.5245 542.553 18.5165C545.753 23.5085 547.353 29.4605 547.353 36.3725C547.353 43.3485 545.753 49.3645 542.553 54.4205C539.353 59.4125 534.905 63.2845 529.209 66.0365C523.513 68.7245 516.921 70.0685 509.433 70.0685H476.313ZM498.969 52.4045H508.473C511.673 52.4045 514.457 51.7965 516.825 50.5805C519.257 49.3645 521.145 47.5725 522.489 45.2045C523.833 42.7725 524.505 39.8285 524.505 36.3725C524.505 32.9805 523.833 30.1005 522.489 27.7325C521.145 25.3645 519.257 23.5725 516.825 22.3565C514.457 21.1405 511.673 20.5325 508.473 20.5325H498.969V52.4045Z" stroke="#808080" stroke-opacity="0.6" stroke-width="4" mask="url(#path-1-outside-1_148_546)"/>
</svg>
